<svg width="8658" height="2530" viewBox="0 0 8658 2530" fill="none" xmlns="http://www.w3.org/2000/svg">
<path d="M35.3693 318.273V45.5454H98.4375V66.4261H59.233V297.392H98.4375V318.273H35.3693ZM204.998 293.983C190.936 293.983 178.4 291.568 167.392 286.739C156.454 281.909 147.754 275.197 141.291 266.604C134.899 257.939 131.419 247.889 130.85 236.455H157.697C158.265 243.486 160.68 249.558 164.941 254.672C169.203 259.714 174.778 263.621 181.667 266.391C188.556 269.161 196.191 270.545 204.572 270.545C213.947 270.545 222.257 268.912 229.501 265.645C236.745 262.378 242.427 257.832 246.547 252.009C250.666 246.185 252.726 239.438 252.726 231.767C252.726 223.741 250.737 216.675 246.76 210.567C242.782 204.388 236.958 199.558 229.288 196.078C221.618 192.598 212.243 190.858 201.163 190.858H183.691V167.42H201.163C209.828 167.42 217.427 165.858 223.961 162.733C230.566 159.608 235.716 155.205 239.409 149.523C243.173 143.841 245.055 137.165 245.055 129.494C245.055 122.108 243.422 115.68 240.154 110.212C236.887 104.743 232.271 100.482 226.305 97.4276C220.41 94.3736 213.45 92.8466 205.424 92.8466C197.896 92.8466 190.794 94.2315 184.118 97.0014C177.512 99.7003 172.115 103.642 167.924 108.827C163.734 113.94 161.461 120.119 161.106 127.364H135.538C135.964 115.929 139.409 105.915 145.872 97.321C152.335 88.6562 160.787 81.9091 171.227 77.0795C181.738 72.25 193.279 69.8352 205.851 69.8352C219.345 69.8352 230.922 72.5696 240.581 78.0383C250.24 83.4361 257.662 90.5739 262.846 99.4517C268.031 108.33 270.623 117.918 270.623 128.216C270.623 140.503 267.392 150.979 260.929 159.643C254.537 168.308 245.836 174.31 234.828 177.648V179.352C248.606 181.625 259.366 187.484 267.108 196.93C274.849 206.305 278.72 217.918 278.72 231.767C278.72 243.628 275.488 254.281 269.025 263.727C262.633 273.102 253.897 280.489 242.818 285.886C231.738 291.284 219.132 293.983 204.998 293.983ZM353.48 261.17L351.776 272.676C350.568 280.773 348.722 289.438 346.236 298.67C343.821 307.903 341.3 316.604 338.672 324.771C336.044 332.939 333.878 339.438 332.173 344.267H312.997C313.92 339.722 315.128 333.72 316.619 326.263C318.111 318.805 319.602 310.46 321.094 301.227C322.656 292.065 323.935 282.69 324.929 273.102L326.207 261.17H353.48ZM478.897 246.256V224.523L574.778 72.8182H590.545V106.483H579.892L507.449 221.114V222.818H636.568V246.256H478.897ZM581.596 291V239.651V229.53V72.8182H606.738V291H581.596ZM704.164 261.17L702.459 272.676C701.252 280.773 699.405 289.438 696.919 298.67C694.505 307.903 691.983 316.604 689.355 324.771C686.728 332.939 684.561 339.438 682.857 344.267H663.681C664.604 339.722 665.811 333.72 667.303 326.263C668.794 318.805 670.286 310.46 671.777 301.227C673.34 292.065 674.618 282.69 675.613 273.102L676.891 261.17H704.164ZM911.399 72.8182V291H884.979V100.517H883.7L830.433 135.886V109.04L884.979 72.8182H911.399ZM1050.85 72.8182V291H1024.43V100.517H1023.15L969.886 135.886V109.04L1024.43 72.8182H1050.85ZM1138.64 261.17L1136.93 272.676C1135.72 280.773 1133.88 289.438 1131.39 298.67C1128.98 307.903 1126.46 316.604 1123.83 324.771C1121.2 332.939 1119.03 339.438 1117.33 344.267H1098.15C1099.08 339.722 1100.28 333.72 1101.78 326.263C1103.27 318.805 1104.76 310.46 1106.25 301.227C1107.81 292.065 1109.09 282.69 1110.09 273.102L1111.36 261.17H1138.64ZM1345.87 72.8182V291H1319.45V100.517H1318.17L1264.91 135.886V109.04L1319.45 72.8182H1345.87ZM1482.34 293.983C1468.28 293.983 1455.74 291.568 1444.74 286.739C1433.8 281.909 1425.1 275.197 1418.63 266.604C1412.24 257.939 1408.76 247.889 1408.19 236.455H1435.04C1435.61 243.486 1438.02 249.558 1442.29 254.672C1446.55 259.714 1452.12 263.621 1459.01 266.391C1465.9 269.161 1473.54 270.545 1481.92 270.545C1491.29 270.545 1499.6 268.912 1506.84 265.645C1514.09 262.378 1519.77 257.832 1523.89 252.009C1528.01 246.185 1530.07 239.438 1530.07 231.767C1530.07 223.741 1528.08 216.675 1524.1 210.567C1520.13 204.388 1514.3 199.558 1506.63 196.078C1498.96 192.598 1489.59 190.858 1478.51 190.858H1461.04V167.42H1478.51C1487.17 167.42 1494.77 165.858 1501.31 162.733C1507.91 159.608 1513.06 155.205 1516.75 149.523C1520.52 143.841 1522.4 137.165 1522.4 129.494C1522.4 122.108 1520.77 115.68 1517.5 110.212C1514.23 104.743 1509.61 100.482 1503.65 97.4276C1497.75 94.3736 1490.79 92.8466 1482.77 92.8466C1475.24 92.8466 1468.14 94.2315 1461.46 97.0014C1454.86 99.7003 1449.46 103.642 1445.27 108.827C1441.08 113.94 1438.81 120.119 1438.45 127.364H1412.88C1413.31 115.929 1416.75 105.915 1423.22 97.321C1429.68 88.6562 1438.13 81.9091 1448.57 77.0795C1459.08 72.25 1470.62 69.8352 1483.19 69.8352C1496.69 69.8352 1508.27 72.5696 1517.92 78.0383C1527.58 83.4361 1535.01 90.5739 1540.19 99.4517C1545.37 108.33 1547.97 117.918 1547.97 128.216C1547.97 140.503 1544.74 150.979 1538.27 159.643C1531.88 168.308 1523.18 174.31 1512.17 177.648V179.352C1525.95 181.625 1536.71 187.484 1544.45 196.93C1552.19 206.305 1556.06 217.918 1556.06 231.767C1556.06 243.628 1552.83 254.281 1546.37 263.727C1539.98 273.102 1531.24 280.489 1520.16 285.886C1509.08 291.284 1496.48 293.983 1482.34 293.983ZM1630.82 261.17L1629.12 272.676C1627.91 280.773 1626.07 289.438 1623.58 298.67C1621.16 307.903 1618.64 316.604 1616.02 324.771C1613.39 332.939 1611.22 339.438 1609.52 344.267H1590.34C1591.26 339.722 1592.47 333.72 1593.96 326.263C1595.45 318.805 1596.95 310.46 1598.44 301.227C1600 292.065 1601.28 282.69 1602.27 273.102L1603.55 261.17H1630.82ZM1838.06 72.8182V291H1811.64V100.517H1810.36L1757.09 135.886V109.04L1811.64 72.8182H1838.06ZM1977.51 72.8182V291H1951.09V100.517H1949.81L1896.55 135.886V109.04L1951.09 72.8182H1977.51ZM2065.3 261.17L2063.59 272.676C2062.38 280.773 2060.54 289.438 2058.05 298.67C2055.64 307.903 2053.12 316.604 2050.49 324.771C2047.86 332.939 2045.69 339.438 2043.99 344.267H2024.81C2025.74 339.722 2026.94 333.72 2028.44 326.263C2029.93 318.805 2031.42 310.46 2032.91 301.227C2034.47 292.065 2035.75 282.69 2036.75 273.102L2038.02 261.17H2065.3ZM2190.71 246.256V224.523L2286.59 72.8182H2302.36V106.483H2291.71L2219.26 221.114V222.818H2348.38V246.256H2190.71ZM2293.41 291V239.651V229.53V72.8182H2318.55V291H2293.41ZM2415.98 261.17L2414.28 272.676C2413.07 280.773 2411.22 289.438 2408.74 298.67C2406.32 307.903 2403.8 316.604 2401.17 324.771C2398.54 332.939 2396.38 339.438 2394.67 344.267H2375.5C2376.42 339.722 2377.63 333.72 2379.12 326.263C2380.61 318.805 2382.1 310.46 2383.59 301.227C2385.16 292.065 2386.43 282.69 2387.43 273.102L2388.71 261.17H2415.98ZM2541.4 246.256V224.523L2637.28 72.8182H2653.05V106.483H2642.39L2569.95 221.114V222.818H2699.07V246.256H2541.4ZM2644.1 291V239.651V229.53V72.8182H2669.24V291H2644.1ZM2766.66 261.17L2764.96 272.676C2763.75 280.773 2761.91 289.438 2759.42 298.67C2757 307.903 2754.48 316.604 2751.86 324.771C2749.23 332.939 2747.06 339.438 2745.36 344.267H2726.18C2727.1 339.722 2728.31 333.72 2729.8 326.263C2731.29 318.805 2732.79 310.46 2734.28 301.227C2735.84 292.065 2737.12 282.69 2738.11 273.102L2739.39 261.17H2766.66ZM2904.01 291L3001.6 97.9602V96.2557H2889.1V72.8182H3028.87V97.5341L2931.71 291H2904.01ZM3069.01 261.17L3067.3 272.676C3066.1 280.773 3064.25 289.438 3061.76 298.67C3059.35 307.903 3056.83 316.604 3054.2 324.771C3051.57 332.939 3049.41 339.438 3047.7 344.267H3028.52C3029.45 339.722 3030.66 333.72 3032.15 326.263C3033.64 318.805 3035.13 310.46 3036.62 301.227C3038.18 292.065 3039.46 282.69 3040.46 273.102L3041.73 261.17H3069.01ZM3273.26 293.983C3259.2 293.983 3246.66 291.568 3235.65 286.739C3224.72 281.909 3216.02 275.197 3209.55 266.604C3203.16 257.939 3199.68 247.889 3199.11 236.455H3225.96C3226.53 243.486 3228.94 249.558 3233.2 254.672C3237.46 259.714 3243.04 263.621 3249.93 266.391C3256.82 269.161 3264.45 270.545 3272.83 270.545C3282.21 270.545 3290.52 268.912 3297.76 265.645C3305.01 262.378 3310.69 257.832 3314.81 252.009C3318.93 246.185 3320.99 239.438 3320.99 231.767C3320.99 223.741 3319 216.675 3315.02 210.567C3311.04 204.388 3305.22 199.558 3297.55 196.078C3289.88 192.598 3280.5 190.858 3269.42 190.858H3251.95V167.42H3269.42C3278.09 167.42 3285.69 165.858 3292.22 162.733C3298.83 159.608 3303.98 155.205 3307.67 149.523C3311.43 143.841 3313.32 137.165 3313.32 129.494C3313.32 122.108 3311.68 115.68 3308.42 110.212C3305.15 104.743 3300.53 100.482 3294.57 97.4276C3288.67 94.3736 3281.71 92.8466 3273.69 92.8466C3266.16 92.8466 3259.06 94.2315 3252.38 97.0014C3245.77 99.7003 3240.38 103.642 3236.19 108.827C3232 113.94 3229.72 120.119 3229.37 127.364H3203.8C3204.23 115.929 3207.67 105.915 3214.13 97.321C3220.6 88.6562 3229.05 81.9091 3239.49 77.0795C3250 72.25 3261.54 69.8352 3274.11 69.8352C3287.61 69.8352 3299.18 72.5696 3308.84 78.0383C3318.5 83.4361 3325.92 90.5739 3331.11 99.4517C3336.29 108.33 3338.88 117.918 3338.88 128.216C3338.88 140.503 3335.65 150.979 3329.19 159.643C3322.8 168.308 3314.1 174.31 3303.09 177.648V179.352C3316.87 181.625 3327.63 187.484 3335.37 196.93C3343.11 206.305 3346.98 217.918 3346.98 231.767C3346.98 243.628 3343.75 254.281 3337.29 263.727C3330.89 273.102 3322.16 280.489 3311.08 285.886C3300 291.284 3287.39 293.983 3273.26 293.983ZM3441.26 45.5454V318.273H3378.2V297.392H3417.4V66.4261H3378.2V45.5454H3441.26Z" fill="#006CA9"/>
<path d="M5208.37 318.273V45.5454H5271.44V66.4261H5232.23V297.392H5271.44V318.273H5208.37ZM5299.16 246.256V224.523L5395.04 72.8182H5410.81V106.483H5400.16L5327.71 221.114V222.818H5456.83V246.256H5299.16ZM5401.86 291V239.651V229.53V72.8182H5427V291H5401.86ZM5524.43 261.17L5522.72 272.676C5521.52 280.773 5519.67 289.438 5517.19 298.67C5514.77 307.903 5512.25 316.604 5509.62 324.771C5506.99 332.939 5504.83 339.438 5503.12 344.267H5483.95C5484.87 339.722 5486.08 333.72 5487.57 326.263C5489.06 318.805 5490.55 310.46 5492.04 301.227C5493.61 292.065 5494.88 282.69 5495.88 273.102L5497.16 261.17H5524.43ZM5649.85 246.256V224.523L5745.73 72.8182H5761.49V106.483H5750.84L5678.4 221.114V222.818H5807.52V246.256H5649.85ZM5752.55 291V239.651V229.53V72.8182H5777.69V291H5752.55ZM5875.11 261.17L5873.41 272.676C5872.2 280.773 5870.35 289.438 5867.87 298.67C5865.45 307.903 5862.93 316.604 5860.3 324.771C5857.68 332.939 5855.51 339.438 5853.81 344.267H5834.63C5835.55 339.722 5836.76 333.72 5838.25 326.263C5839.74 318.805 5841.24 310.46 5842.73 301.227C5844.29 292.065 5845.57 282.69 5846.56 273.102L5847.84 261.17H5875.11ZM6000.53 246.256V224.523L6096.41 72.8182H6112.18V106.483H6101.52L6029.08 221.114V222.818H6158.2V246.256H6000.53ZM6103.23 291V239.651V229.53V72.8182H6128.37V291H6103.23ZM6225.8 261.17L6224.09 272.676C6222.88 280.773 6221.04 289.438 6218.55 298.67C6216.14 307.903 6213.62 316.604 6210.99 324.771C6208.36 332.939 6206.19 339.438 6204.49 344.267H6185.31C6186.24 339.722 6187.44 333.72 6188.94 326.263C6190.43 318.805 6191.92 310.46 6193.41 301.227C6194.97 292.065 6196.25 282.69 6197.25 273.102L6198.52 261.17H6225.8ZM6430.05 293.983C6415.99 293.983 6403.45 291.568 6392.44 286.739C6381.5 281.909 6372.8 275.197 6366.34 266.604C6359.95 257.939 6356.47 247.889 6355.9 236.455H6382.75C6383.32 243.486 6385.73 249.558 6389.99 254.672C6394.25 259.714 6399.83 263.621 6406.72 266.391C6413.61 269.161 6421.24 270.545 6429.62 270.545C6439 270.545 6447.31 268.912 6454.55 265.645C6461.8 262.378 6467.48 257.832 6471.6 252.009C6475.72 246.185 6477.78 239.438 6477.78 231.767C6477.78 223.741 6475.79 216.675 6471.81 210.567C6467.83 204.388 6462.01 199.558 6454.34 196.078C6446.67 192.598 6437.29 190.858 6426.21 190.858H6408.74V167.42H6426.21C6434.88 167.42 6442.48 165.858 6449.01 162.733C6455.62 159.608 6460.77 155.205 6464.46 149.523C6468.22 143.841 6470.11 137.165 6470.11 129.494C6470.11 122.108 6468.47 115.68 6465.21 110.212C6461.94 104.743 6457.32 100.482 6451.36 97.4276C6445.46 94.3736 6438.5 92.8466 6430.48 92.8466C6422.95 92.8466 6415.84 94.2315 6409.17 97.0014C6402.56 99.7003 6397.17 103.642 6392.98 108.827C6388.78 113.94 6386.51 120.119 6386.16 127.364H6360.59C6361.01 115.929 6364.46 105.915 6370.92 97.321C6377.39 88.6562 6385.84 81.9091 6396.28 77.0795C6406.79 72.25 6418.33 69.8352 6430.9 69.8352C6444.4 69.8352 6455.97 72.5696 6465.63 78.0383C6475.29 83.4361 6482.71 90.5739 6487.9 99.4517C6493.08 108.33 6495.67 117.918 6495.67 128.216C6495.67 140.503 6492.44 150.979 6485.98 159.643C6479.59 168.308 6470.89 174.31 6459.88 177.648V179.352C6473.66 181.625 6484.42 187.484 6492.16 196.93C6499.9 206.305 6503.77 217.918 6503.77 231.767C6503.77 243.628 6500.54 254.281 6494.08 263.727C6487.68 273.102 6478.95 280.489 6467.87 285.886C6456.79 291.284 6444.18 293.983 6430.05 293.983ZM6578.53 261.17L6576.83 272.676C6575.62 280.773 6573.77 289.438 6571.29 298.67C6568.87 307.903 6566.35 316.604 6563.72 324.771C6561.09 332.939 6558.93 339.438 6557.22 344.267H6538.05C6538.97 339.722 6540.18 333.72 6541.67 326.263C6543.16 318.805 6544.65 310.46 6546.14 301.227C6547.71 292.065 6548.99 282.69 6549.98 273.102L6551.26 261.17H6578.53ZM6782.78 293.983C6768.72 293.983 6756.19 291.568 6745.18 286.739C6734.24 281.909 6725.54 275.197 6719.08 266.604C6712.68 257.939 6709.2 247.889 6708.64 236.455H6735.48C6736.05 243.486 6738.47 249.558 6742.73 254.672C6746.99 259.714 6752.56 263.621 6759.45 266.391C6766.34 269.161 6773.98 270.545 6782.36 270.545C6791.73 270.545 6800.04 268.912 6807.29 265.645C6814.53 262.378 6820.21 257.832 6824.33 252.009C6828.45 246.185 6830.51 239.438 6830.51 231.767C6830.51 223.741 6828.52 216.675 6824.54 210.567C6820.57 204.388 6814.74 199.558 6807.07 196.078C6799.4 192.598 6790.03 190.858 6778.95 190.858H6761.48V167.42H6778.95C6787.61 167.42 6795.21 165.858 6801.75 162.733C6808.35 159.608 6813.5 155.205 6817.19 149.523C6820.96 143.841 6822.84 137.165 6822.84 129.494C6822.84 122.108 6821.21 115.68 6817.94 110.212C6814.67 104.743 6810.06 100.482 6804.09 97.4276C6798.2 94.3736 6791.24 92.8466 6783.21 92.8466C6775.68 92.8466 6768.58 94.2315 6761.9 97.0014C6755.3 99.7003 6749.9 103.642 6745.71 108.827C6741.52 113.94 6739.25 120.119 6738.89 127.364H6713.32C6713.75 115.929 6717.19 105.915 6723.66 97.321C6730.12 88.6562 6738.57 81.9091 6749.01 77.0795C6759.52 72.25 6771.06 69.8352 6783.64 69.8352C6797.13 69.8352 6808.71 72.5696 6818.37 78.0383C6828.02 83.4361 6835.45 90.5739 6840.63 99.4517C6845.82 108.33 6848.41 117.918 6848.41 128.216C6848.41 140.503 6845.18 150.979 6838.71 159.643C6832.32 168.308 6823.62 174.31 6812.61 177.648V179.352C6826.39 181.625 6837.15 187.484 6844.89 196.93C6852.63 206.305 6856.5 217.918 6856.5 231.767C6856.5 243.628 6853.27 254.281 6846.81 263.727C6840.42 273.102 6831.68 280.489 6820.6 285.886C6809.52 291.284 6796.92 293.983 6782.78 293.983ZM6931.27 261.17L6929.56 272.676C6928.35 280.773 6926.51 289.438 6924.02 298.67C6921.61 307.903 6919.08 316.604 6916.46 324.771C6913.83 332.939 6911.66 339.438 6909.96 344.267H6890.78C6891.71 339.722 6892.91 333.72 6894.4 326.263C6895.9 318.805 6897.39 310.46 6898.88 301.227C6900.44 292.065 6901.72 282.69 6902.71 273.102L6903.99 261.17H6931.27ZM7138.5 72.8182V291H7112.08V100.517H7110.8L7057.53 135.886V109.04L7112.08 72.8182H7138.5ZM7277.95 72.8182V291H7251.53V100.517H7250.25L7196.99 135.886V109.04L7251.53 72.8182H7277.95ZM7365.74 261.17L7364.03 272.676C7362.83 280.773 7360.98 289.438 7358.49 298.67C7356.08 307.903 7353.56 316.604 7350.93 324.771C7348.3 332.939 7346.14 339.438 7344.43 344.267H7325.25C7326.18 339.722 7327.39 333.72 7328.88 326.263C7330.37 318.805 7331.86 310.46 7333.35 301.227C7334.91 292.065 7336.19 282.69 7337.19 273.102L7338.47 261.17H7365.74ZM7572.97 72.8182V291H7546.55V100.517H7545.27L7492.01 135.886V109.04L7546.55 72.8182H7572.97ZM7712.43 72.8182V291H7686.01V100.517H7684.73L7631.46 135.886V109.04L7686.01 72.8182H7712.43ZM7800.21 261.17L7798.51 272.676C7797.3 280.773 7795.45 289.438 7792.97 298.67C7790.55 307.903 7788.03 316.604 7785.4 324.771C7782.77 332.939 7780.61 339.438 7778.9 344.267H7759.73C7760.65 339.722 7761.86 333.72 7763.35 326.263C7764.84 318.805 7766.33 310.46 7767.82 301.227C7769.39 292.065 7770.67 282.69 7771.66 273.102L7772.94 261.17H7800.21ZM8007.45 72.8182V291H7981.03V100.517H7979.75L7926.48 135.886V109.04L7981.03 72.8182H8007.45ZM8143.92 293.983C8129.85 293.983 8117.32 291.568 8106.31 286.739C8095.37 281.909 8086.67 275.197 8080.21 266.604C8073.82 257.939 8070.34 247.889 8069.77 236.455H8096.62C8097.18 243.486 8099.6 249.558 8103.86 254.672C8108.12 259.714 8113.7 263.621 8120.59 266.391C8127.47 269.161 8135.11 270.545 8143.49 270.545C8152.87 270.545 8161.17 268.912 8168.42 265.645C8175.66 262.378 8181.35 257.832 8185.46 252.009C8189.58 246.185 8191.64 239.438 8191.64 231.767C8191.64 223.741 8189.65 216.675 8185.68 210.567C8181.7 204.388 8175.88 199.558 8168.21 196.078C8160.54 192.598 8151.16 190.858 8140.08 190.858H8122.61V167.42H8140.08C8148.75 167.42 8156.35 165.858 8162.88 162.733C8169.48 159.608 8174.63 155.205 8178.33 149.523C8182.09 143.841 8183.97 137.165 8183.97 129.494C8183.97 122.108 8182.34 115.68 8179.07 110.212C8175.81 104.743 8171.19 100.482 8165.22 97.4276C8159.33 94.3736 8152.37 92.8466 8144.34 92.8466C8136.81 92.8466 8129.71 94.2315 8123.04 97.0014C8116.43 99.7003 8111.03 103.642 8106.84 108.827C8102.65 113.94 8100.38 120.119 8100.02 127.364H8074.46C8074.88 115.929 8078.33 105.915 8084.79 97.321C8091.25 88.6562 8099.7 81.9091 8110.14 77.0795C8120.66 72.25 8132.2 69.8352 8144.77 69.8352C8158.26 69.8352 8169.84 72.5696 8179.5 78.0383C8189.16 83.4361 8196.58 90.5739 8201.76 99.4517C8206.95 108.33 8209.54 117.918 8209.54 128.216C8209.54 140.503 8206.31 150.979 8199.85 159.643C8193.45 168.308 8184.75 174.31 8173.75 177.648V179.352C8187.52 181.625 8198.28 187.484 8206.03 196.93C8213.77 206.305 8217.64 217.918 8217.64 231.767C8217.64 243.628 8214.41 254.281 8207.94 263.727C8201.55 273.102 8192.82 280.489 8181.74 285.886C8170.66 291.284 8158.05 293.983 8143.92 293.983ZM8292.4 261.17L8290.69 272.676C8289.49 280.773 8287.64 289.438 8285.15 298.67C8282.74 307.903 8280.22 316.604 8277.59 324.771C8274.96 332.939 8272.8 339.438 8271.09 344.267H8251.92C8252.84 339.722 8254.05 333.72 8255.54 326.263C8257.03 318.805 8258.52 310.46 8260.01 301.227C8261.57 292.065 8262.85 282.69 8263.85 273.102L8265.13 261.17H8292.4ZM8429.75 291L8527.33 97.9602V96.2557H8414.83V72.8182H8554.61V97.5341L8457.45 291H8429.75ZM8645.03 45.5454V318.273H8581.96V297.392H8621.16V66.4261H8581.96V45.5454H8645.03Z" fill="#FA8F00"/>
<path d="M3588.62 657.409C3572.85 657.409 3559.25 653.929 3547.82 646.969C3536.45 639.938 3527.68 630.136 3521.5 617.565C3515.39 604.923 3512.34 590.222 3512.34 573.46C3512.34 556.699 3515.39 541.926 3521.5 529.142C3527.68 516.287 3536.28 506.273 3547.28 499.099C3558.36 491.855 3571.29 488.233 3586.06 488.233C3594.59 488.233 3603 489.653 3611.31 492.494C3619.62 495.335 3627.18 499.952 3634 506.344C3640.82 512.665 3646.25 521.045 3650.3 531.486C3654.35 541.926 3656.38 554.781 3656.38 570.051V580.705H3530.24V558.972H3630.81C3630.81 549.739 3628.96 541.5 3625.27 534.256C3621.64 527.011 3616.46 521.294 3609.71 517.104C3603.04 512.913 3595.15 510.818 3586.06 510.818C3576.05 510.818 3567.38 513.304 3560.07 518.276C3552.82 523.176 3547.25 529.568 3543.34 537.452C3539.44 545.335 3537.48 553.787 3537.48 562.807V577.295C3537.48 589.653 3539.61 600.129 3543.88 608.723C3548.21 617.246 3554.21 623.744 3561.88 628.219C3569.55 632.622 3578.46 634.824 3588.62 634.824C3595.22 634.824 3601.19 633.901 3606.52 632.054C3611.91 630.136 3616.57 627.295 3620.47 623.531C3624.38 619.696 3627.4 614.937 3629.53 609.256L3653.82 616.074C3651.26 624.312 3646.96 631.557 3640.93 637.807C3634.89 643.986 3627.43 648.815 3618.56 652.295C3609.68 655.705 3599.7 657.409 3588.62 657.409ZM3719.76 435.818V654H3694.62V435.818H3719.76ZM3834.42 657.409C3818.65 657.409 3805.05 653.929 3793.62 646.969C3782.25 639.938 3773.48 630.136 3767.3 617.565C3761.2 604.923 3758.14 590.222 3758.14 573.46C3758.14 556.699 3761.2 541.926 3767.3 529.142C3773.48 516.287 3782.08 506.273 3793.08 499.099C3804.16 491.855 3817.09 488.233 3831.86 488.233C3840.39 488.233 3848.8 489.653 3857.11 492.494C3865.42 495.335 3872.99 499.952 3879.8 506.344C3886.62 512.665 3892.06 521.045 3896.1 531.486C3900.15 541.926 3902.18 554.781 3902.18 570.051V580.705H3776.04V558.972H3876.61C3876.61 549.739 3874.76 541.5 3871.07 534.256C3867.45 527.011 3862.26 521.294 3855.51 517.104C3848.84 512.913 3840.95 510.818 3831.86 510.818C3821.85 510.818 3813.18 513.304 3805.87 518.276C3798.62 523.176 3793.05 529.568 3789.14 537.452C3785.24 545.335 3783.28 553.787 3783.28 562.807V577.295C3783.28 589.653 3785.41 600.129 3789.68 608.723C3794.01 617.246 3800.01 623.744 3807.68 628.219C3815.35 632.622 3824.26 634.824 3834.42 634.824C3841.03 634.824 3846.99 633.901 3852.32 632.054C3857.72 630.136 3862.37 627.295 3866.27 623.531C3870.18 619.696 3873.2 614.937 3875.33 609.256L3899.62 616.074C3897.06 624.312 3892.77 631.557 3886.73 637.807C3880.69 643.986 3873.23 648.815 3864.36 652.295C3855.48 655.705 3845.5 657.409 3834.42 657.409ZM3940.42 654V490.364H3964.71V515.932H3966.84C3970.25 507.196 3975.76 500.413 3983.35 495.584C3990.95 490.683 4000.08 488.233 4010.73 488.233C4021.53 488.233 4030.51 490.683 4037.69 495.584C4044.93 500.413 4050.58 507.196 4054.63 515.932H4056.33C4060.52 507.48 4066.81 500.768 4075.19 495.797C4083.57 490.754 4093.62 488.233 4105.34 488.233C4119.97 488.233 4131.93 492.814 4141.24 501.976C4150.54 511.067 4155.19 525.236 4155.19 544.483V654H4130.05V544.483C4130.05 532.409 4126.75 523.78 4120.14 518.595C4113.54 513.411 4105.76 510.818 4096.81 510.818C4085.31 510.818 4076.39 514.298 4070.07 521.259C4063.75 528.148 4060.59 536.884 4060.59 547.466V654H4035.02V541.926C4035.02 532.622 4032.01 525.129 4025.97 519.447C4019.93 513.695 4012.15 510.818 4002.64 510.818C3996.1 510.818 3990 512.558 3984.31 516.038C3978.7 519.518 3974.16 524.348 3970.68 530.527C3967.27 536.635 3965.56 543.702 3965.56 551.727V654H3940.42ZM4695.91 490.364V511.67H4607.7V490.364H4695.91ZM4634.12 654V467.778C4634.12 458.403 4636.32 450.591 4640.72 444.341C4645.13 438.091 4650.84 433.403 4657.88 430.278C4664.91 427.153 4672.33 425.591 4680.14 425.591C4686.32 425.591 4691.36 426.088 4695.27 427.082C4699.18 428.077 4702.09 429 4704 429.852L4696.76 451.585C4695.48 451.159 4693.71 450.626 4691.43 449.987C4689.23 449.348 4686.32 449.028 4682.7 449.028C4674.39 449.028 4668.39 451.124 4664.69 455.314C4661.07 459.504 4659.26 465.648 4659.26 473.744V654H4634.12ZM4731.14 654V490.364H4755.43V515.08H4757.14C4760.12 506.983 4765.52 500.413 4773.33 495.371C4781.14 490.328 4789.95 487.807 4799.75 487.807C4801.6 487.807 4803.91 487.842 4806.68 487.913C4809.45 487.984 4811.54 488.091 4812.96 488.233V513.801C4812.11 513.588 4810.16 513.268 4807.1 512.842C4804.12 512.345 4800.96 512.097 4797.62 512.097C4789.67 512.097 4782.56 513.766 4776.31 517.104C4770.14 520.371 4765.24 524.916 4761.61 530.74C4758.06 536.493 4756.29 543.062 4756.29 550.449V654H4731.14ZM4906.39 657.409C4890.63 657.409 4877.02 653.929 4865.59 646.969C4854.23 639.938 4845.46 630.136 4839.28 617.565C4833.17 604.923 4830.11 590.222 4830.11 573.46C4830.11 556.699 4833.17 541.926 4839.28 529.142C4845.46 516.287 4854.05 506.273 4865.06 499.099C4876.14 491.855 4889.06 488.233 4903.84 488.233C4912.36 488.233 4920.77 489.653 4929.08 492.494C4937.39 495.335 4944.96 499.952 4951.78 506.344C4958.59 512.665 4964.03 521.045 4968.08 531.486C4972.12 541.926 4974.15 554.781 4974.15 570.051V580.705H4848.01V558.972H4948.58C4948.58 549.739 4946.73 541.5 4943.04 534.256C4939.42 527.011 4934.23 521.294 4927.49 517.104C4920.81 512.913 4912.93 510.818 4903.84 510.818C4893.82 510.818 4885.16 513.304 4877.84 518.276C4870.6 523.176 4865.02 529.568 4861.12 537.452C4857.21 545.335 4855.26 553.787 4855.26 562.807V577.295C4855.26 589.653 4857.39 600.129 4861.65 608.723C4865.98 617.246 4871.98 623.744 4879.65 628.219C4887.32 632.622 4896.24 634.824 4906.39 634.824C4913 634.824 4918.96 633.901 4924.29 632.054C4929.69 630.136 4934.34 627.295 4938.25 623.531C4942.15 619.696 4945.17 614.937 4947.3 609.256L4971.59 616.074C4969.03 624.312 4964.74 631.557 4958.7 637.807C4952.66 643.986 4945.21 648.815 4936.33 652.295C4927.45 655.705 4917.47 657.409 4906.39 657.409ZM5124.04 715.364V628.858H5121.91C5120.06 631.841 5117.44 635.605 5114.03 640.151C5110.62 644.625 5105.75 648.638 5099.43 652.189C5093.11 655.669 5084.7 657.409 5074.18 657.409C5060.55 657.409 5048.51 653.964 5038.07 647.075C5027.63 640.115 5019.46 630.314 5013.57 617.672C5007.67 604.959 5004.72 589.938 5004.72 572.608C5004.72 555.42 5007.67 540.506 5013.57 527.864C5019.46 515.222 5027.66 505.456 5038.18 498.567C5048.69 491.678 5060.83 488.233 5074.61 488.233C5085.26 488.233 5093.68 490.009 5099.86 493.56C5106.11 497.04 5110.87 501.017 5114.13 505.491C5117.47 509.895 5120.06 513.517 5121.91 516.358H5124.89V490.364H5149.18V715.364H5124.04ZM5077.59 634.824C5087.68 634.824 5096.2 632.196 5103.16 626.94C5110.12 621.614 5115.41 614.263 5119.03 604.888C5122.66 595.442 5124.47 584.54 5124.47 572.182C5124.47 559.966 5122.69 549.277 5119.14 540.115C5115.59 530.882 5110.33 523.709 5103.37 518.595C5096.41 513.411 5087.82 510.818 5077.59 510.818C5066.94 510.818 5058.06 513.553 5050.96 519.021C5043.93 524.419 5038.64 531.77 5035.09 541.074C5031.61 550.307 5029.87 560.676 5029.87 572.182C5029.87 583.83 5031.64 594.412 5035.19 603.929C5038.81 613.375 5044.14 620.903 5051.17 626.514C5058.27 632.054 5067.08 634.824 5077.59 634.824Z" fill="#737370"/>
<path d="M3503.47 1335.26V1313.52L3599.35 1161.82H3615.12V1195.48H3604.47L3532.02 1310.11V1311.82H3661.14V1335.26H3503.47ZM3606.17 1380V1328.65V1318.53V1161.82H3631.31V1380H3606.17ZM4702.91 1382.98C4688.85 1382.98 4676.31 1380.57 4665.31 1375.74C4654.37 1370.91 4645.67 1364.2 4639.2 1355.6C4632.81 1346.94 4629.33 1336.89 4628.76 1325.45H4655.61C4656.18 1332.49 4658.59 1338.56 4662.86 1343.67C4667.12 1348.71 4672.69 1352.62 4679.58 1355.39C4686.47 1358.16 4694.11 1359.55 4702.49 1359.55C4711.86 1359.55 4720.17 1357.91 4727.42 1354.64C4734.66 1351.38 4740.34 1346.83 4744.46 1341.01C4748.58 1335.18 4750.64 1328.44 4750.64 1320.77C4750.64 1312.74 4748.65 1305.67 4744.67 1299.57C4740.7 1293.39 4734.87 1288.56 4727.2 1285.08C4719.53 1281.6 4710.16 1279.86 4699.08 1279.86H4681.61V1256.42H4699.08C4707.74 1256.42 4715.34 1254.86 4721.88 1251.73C4728.48 1248.61 4733.63 1244.2 4737.32 1238.52C4741.09 1232.84 4742.97 1226.16 4742.97 1218.49C4742.97 1211.11 4741.34 1204.68 4738.07 1199.21C4734.8 1193.74 4730.19 1189.48 4724.22 1186.43C4718.32 1183.37 4711.36 1181.85 4703.34 1181.85C4695.81 1181.85 4688.71 1183.23 4682.03 1186C4675.43 1188.7 4670.03 1192.64 4665.84 1197.83C4661.65 1202.94 4659.38 1209.12 4659.02 1216.36H4633.45C4633.88 1204.93 4637.32 1194.91 4643.79 1186.32C4650.25 1177.66 4658.7 1170.91 4669.14 1166.08C4679.65 1161.25 4691.19 1158.84 4703.76 1158.84C4717.26 1158.84 4728.84 1161.57 4738.49 1167.04C4748.15 1172.44 4755.58 1179.57 4760.76 1188.45C4765.94 1197.33 4768.54 1206.92 4768.54 1217.22C4768.54 1229.5 4765.31 1239.98 4758.84 1248.64C4752.45 1257.31 4743.75 1263.31 4732.74 1266.65V1268.35C4746.52 1270.62 4757.28 1276.48 4765.02 1285.93C4772.76 1295.31 4776.63 1306.92 4776.63 1320.77C4776.63 1332.63 4773.4 1343.28 4766.94 1352.73C4760.55 1362.1 4751.81 1369.49 4740.73 1374.89C4729.65 1380.28 4717.05 1382.98 4702.91 1382.98Z" fill="#737370"/>
<path d="M5349.07 745.057L5295.39 683.308L5304.56 675.34L5312.94 684.989L5313.75 684.29C5312.17 679.875 5312.02 675.51 5313.3 671.195C5314.56 666.853 5317.2 662.934 5321.22 659.44C5325.3 655.898 5329.49 653.876 5333.81 653.372C5338.13 652.818 5342.48 653.525 5346.87 655.494L5347.52 654.935C5346.33 650.371 5346.5 645.777 5348.03 641.151C5349.54 636.499 5352.5 632.251 5356.92 628.407C5362.44 623.608 5368.46 621.411 5374.98 621.816C5381.47 622.195 5387.88 626.016 5394.19 633.279L5430.11 674.605L5420.63 682.853L5384.7 641.526C5380.74 636.97 5376.66 634.797 5372.47 635.007C5368.28 635.217 5364.49 636.79 5361.12 639.726C5356.77 643.5 5354.55 647.737 5354.45 652.437C5354.32 657.11 5356 661.443 5359.47 665.437L5394.42 705.638L5384.77 714.025L5348 671.733C5344.95 668.222 5341.35 666.385 5337.21 666.221C5333.05 666.031 5329.17 667.496 5325.58 670.618C5323.11 672.762 5321.38 675.422 5320.38 678.599C5319.4 681.753 5319.27 685.066 5319.98 688.539C5320.7 691.962 5322.38 695.188 5325.01 698.217L5358.56 736.81L5349.07 745.057ZM5466.89 645.178C5462.98 648.579 5458.79 650.929 5454.31 652.227C5449.82 653.499 5445.41 653.543 5441.09 652.36C5436.74 651.15 5432.82 648.535 5429.33 644.514C5426.25 640.977 5424.46 637.503 5423.94 634.094C5423.4 630.658 5423.75 627.297 5424.99 624.011C5426.22 620.724 5427.98 617.549 5430.26 614.487C5432.54 611.374 5434.95 608.384 5437.49 605.516C5440.83 601.771 5443.55 598.765 5445.68 596.497C5447.8 594.179 5449.13 592.246 5449.67 590.698C5450.23 589.126 5449.85 587.576 5448.52 586.049L5448.24 585.727C5444.79 581.76 5441.03 579.622 5436.95 579.311C5432.89 578.978 5428.68 580.709 5424.31 584.507C5419.78 588.444 5417.09 592.523 5416.25 596.743C5415.4 600.962 5415.43 604.652 5416.34 607.812L5404.54 612.424C5402.89 607.274 5402.49 602.489 5403.35 598.069C5404.22 593.598 5405.89 589.562 5408.35 585.958C5410.82 582.305 5413.61 579.127 5416.72 576.425C5418.71 574.701 5421.19 572.961 5424.19 571.207C5427.18 569.403 5430.51 568.176 5434.18 567.527C5437.88 566.854 5441.8 567.279 5445.95 568.803C5450.1 570.326 5454.3 573.54 5458.57 578.445L5493.93 619.128L5484.45 627.375L5477.18 619.014L5476.69 619.433C5477.22 621.332 5477.39 623.698 5477.22 626.53C5477.05 629.362 5476.18 632.398 5474.62 635.637C5473.06 638.875 5470.48 642.056 5466.89 645.178ZM5460.93 635.397C5464.68 632.135 5467.2 628.649 5468.49 624.938C5469.81 621.205 5470.11 617.601 5469.4 614.128C5468.71 610.631 5467.25 607.596 5465.02 605.024L5457.47 596.34C5457.48 597.172 5456.98 598.383 5455.97 599.973C5454.95 601.513 5453.69 603.2 5452.18 605.032C5450.67 606.814 5449.18 608.535 5447.7 610.194C5446.23 611.803 5445.04 613.117 5444.14 614.136C5441.95 616.601 5440.1 619.127 5438.59 621.715C5437.08 624.252 5436.28 626.802 5436.2 629.364C5436.13 631.875 5437.14 634.337 5439.24 636.75C5442.1 640.046 5445.49 641.478 5449.4 641.047C5453.31 640.565 5457.15 638.682 5460.93 635.397ZM5464.65 536.175L5501.39 548.561L5494.24 510.455L5505.17 500.95L5512.07 549.157L5558.85 562.698L5547.91 572.204L5512.29 561.104L5518.33 597.924L5507.39 607.43L5500.17 559.501L5453.71 545.681L5464.65 536.175Z" fill="#737370"/>
<path d="M5483.03 1949.11L5475 1957.66C5473.42 1956.41 5471.58 1955.39 5469.48 1954.58C5467.39 1953.72 5465.04 1953.39 5462.43 1953.6C5459.81 1953.8 5456.94 1954.84 5453.8 1956.73C5449.51 1959.3 5446.53 1962.44 5444.86 1966.14C5443.2 1969.79 5443.27 1973.12 5445.08 1976.13C5446.69 1978.81 5448.94 1980.34 5451.82 1980.73C5454.7 1981.11 5458.52 1980.57 5463.28 1979.12L5475.23 1975.42C5482.41 1973.18 5488.49 1972.7 5493.44 1973.98C5498.38 1975.24 5502.33 1978.32 5505.27 1983.22C5507.69 1987.24 5508.69 1991.53 5508.28 1996.08C5507.89 2000.62 5506.2 2005.04 5503.19 2009.33C5500.17 2013.63 5495.94 2017.41 5490.5 2020.69C5483.34 2024.98 5476.49 2026.99 5469.94 2026.7C5463.38 2026.41 5457.69 2023.66 5452.86 2018.44L5461.55 2009.74C5464.79 2012.93 5468.33 2014.66 5472.18 2014.91C5476.05 2015.16 5480.19 2013.95 5484.61 2011.3C5489.63 2008.28 5492.98 2004.82 5494.65 2000.91C5496.33 1996.96 5496.27 1993.48 5494.46 1990.46C5493 1988.03 5490.92 1986.5 5488.23 1985.88C5485.52 1985.23 5482.15 1985.56 5478.12 1986.86L5464.79 1991.14C5457.45 1993.48 5451.32 1993.95 5446.38 1992.57C5441.46 1991.13 5437.55 1988 5434.64 1983.16C5432.26 1979.2 5431.27 1975.03 5431.66 1970.65C5432.08 1966.26 5433.71 1962.03 5436.53 1957.97C5439.38 1953.89 5443.28 1950.37 5448.21 1947.41C5455.15 1943.24 5461.51 1941.49 5467.3 1942.16C5473.11 1942.8 5478.36 1945.12 5483.03 1949.11ZM5554.86 1982.26C5550.41 1984.93 5545.88 1986.52 5541.25 1987.02C5536.6 1987.49 5532.25 1986.77 5528.2 1984.85C5524.13 1982.91 5520.73 1979.65 5517.98 1975.09C5515.57 1971.07 5514.4 1967.34 5514.49 1963.89C5514.55 1960.41 5515.48 1957.16 5517.27 1954.14C5519.06 1951.12 5521.34 1948.3 5524.11 1945.68C5526.9 1943.01 5529.8 1940.48 5532.8 1938.1C5536.73 1934.99 5539.94 1932.5 5542.42 1930.64C5544.92 1928.72 5546.56 1927.05 5547.36 1925.62C5548.19 1924.17 5548.08 1922.58 5547.04 1920.84L5546.82 1920.48C5544.11 1915.97 5540.77 1913.21 5536.81 1912.2C5532.87 1911.16 5528.43 1912.14 5523.46 1915.12C5518.32 1918.21 5514.96 1921.76 5513.39 1925.77C5511.83 1929.78 5511.22 1933.42 5511.57 1936.69L5499.14 1939.18C5498.41 1933.82 5498.85 1929.04 5500.47 1924.83C5502.1 1920.58 5504.44 1916.9 5507.49 1913.78C5510.56 1910.61 5513.86 1907.96 5517.39 1905.84C5519.65 1904.49 5522.4 1903.21 5525.65 1902C5528.91 1900.74 5532.41 1900.11 5536.13 1900.11C5539.89 1900.09 5543.68 1901.19 5547.5 1903.41C5551.32 1905.63 5554.9 1909.53 5558.25 1915.1L5586.01 1961.3L5575.24 1967.78L5569.53 1958.28L5568.99 1958.61C5569.17 1960.57 5568.93 1962.93 5568.27 1965.69C5567.61 1968.45 5566.23 1971.29 5564.13 1974.21C5562.03 1977.13 5558.94 1979.81 5554.86 1982.26ZM5550.69 1971.59C5554.95 1969.03 5558.04 1966.04 5559.95 1962.61C5561.9 1959.16 5562.82 1955.66 5562.72 1952.12C5562.65 1948.56 5561.74 1945.31 5559.99 1942.39L5554.06 1932.53C5553.93 1933.35 5553.23 1934.46 5551.95 1935.85C5550.69 1937.19 5549.15 1938.63 5547.34 1940.17C5545.55 1941.66 5543.78 1943.1 5542.04 1944.48C5540.31 1945.81 5538.91 1946.89 5537.85 1947.74C5535.26 1949.79 5533 1951.95 5531.06 1954.24C5529.13 1956.48 5527.91 1958.85 5527.39 1961.36C5526.88 1963.82 5527.44 1966.42 5529.09 1969.16C5531.34 1972.9 5534.42 1974.9 5538.35 1975.16C5542.28 1975.36 5546.39 1974.17 5550.69 1971.59ZM5605.68 1949.49L5563.54 1879.35L5573.95 1873.1L5580.54 1884.06L5581.45 1883.51C5580.66 1878.89 5581.27 1874.56 5583.29 1870.54C5585.28 1866.48 5588.56 1863.08 5593.13 1860.33C5597.76 1857.55 5602.24 1856.29 5606.57 1856.54C5610.92 1856.75 5615.09 1858.2 5619.07 1860.9L5619.8 1860.46C5619.42 1855.76 5620.39 1851.27 5622.7 1846.98C5624.99 1842.66 5628.65 1838.99 5633.67 1835.97C5639.94 1832.2 5646.25 1831.09 5652.6 1832.62C5658.93 1834.12 5664.57 1838.99 5669.53 1847.24L5697.73 1894.18L5686.95 1900.65L5658.75 1853.72C5655.64 1848.54 5652.01 1845.69 5647.84 1845.17C5643.67 1844.65 5639.67 1845.54 5635.84 1847.85C5630.91 1850.81 5627.98 1854.6 5627.07 1859.21C5626.13 1863.79 5627.03 1868.35 5629.75 1872.88L5657.19 1918.54L5646.23 1925.12L5617.37 1877.09C5614.97 1873.1 5611.75 1870.67 5607.7 1869.79C5603.63 1868.88 5599.55 1869.65 5595.48 1872.1C5592.67 1873.78 5590.5 1876.1 5588.97 1879.05C5587.46 1881.99 5586.75 1885.23 5586.85 1888.78C5586.96 1892.27 5588.05 1895.74 5590.12 1899.18L5616.46 1943.01L5605.68 1949.49ZM5747.71 1866.13C5740.96 1870.19 5734.23 1872.2 5727.54 1872.17C5720.86 1872.08 5714.57 1870.14 5708.69 1866.34C5702.82 1862.5 5697.72 1856.98 5693.4 1849.8C5689.09 1842.61 5686.59 1835.5 5685.92 1828.44C5685.26 1821.34 5686.36 1814.84 5689.23 1808.93C5692.11 1802.97 5696.72 1798.09 5703.05 1794.29C5706.71 1792.09 5710.68 1790.53 5714.97 1789.61C5719.26 1788.69 5723.69 1788.72 5728.26 1789.7C5732.81 1790.66 5737.3 1792.85 5741.72 1796.28C5746.15 1799.71 5750.32 1804.7 5754.26 1811.24L5757 1815.81L5702.94 1848.29L5697.34 1838.98L5740.45 1813.08C5738.07 1809.12 5735.16 1806.07 5731.71 1803.91C5728.29 1801.74 5724.59 1800.63 5720.62 1800.57C5716.68 1800.49 5712.76 1801.62 5708.87 1803.96C5704.58 1806.54 5701.5 1809.84 5699.65 1813.86C5697.81 1817.82 5697.06 1822 5697.42 1826.38C5697.77 1830.77 5699.11 1834.89 5701.44 1838.76L5705.17 1844.97C5708.35 1850.26 5711.96 1854.2 5716 1856.79C5720.05 1859.33 5724.3 1860.57 5728.74 1860.51C5733.16 1860.42 5737.55 1859.07 5741.9 1856.45C5744.73 1854.75 5747.05 1852.82 5748.86 1850.66C5750.68 1848.45 5751.94 1846.03 5752.64 1843.41C5753.33 1840.76 5753.4 1837.94 5752.85 1834.96L5765.01 1831.63C5766.04 1835.82 5766.06 1840.03 5765.08 1844.26C5764.09 1848.46 5762.14 1852.45 5759.23 1856.23C5756.3 1859.98 5752.46 1863.28 5747.71 1866.13ZM5817.52 1726.75L5823.01 1735.88L5785.2 1758.6L5779.71 1749.47L5817.52 1726.75ZM5833.18 1812.79L5785.22 1732.98C5782.81 1728.96 5781.74 1725.05 5782.02 1721.24C5782.29 1717.42 5783.54 1713.94 5785.75 1710.79C5787.96 1707.64 5790.73 1705.06 5794.08 1703.05C5796.73 1701.46 5799.02 1700.37 5800.95 1699.79C5802.88 1699.21 5804.37 1698.86 5805.41 1698.73L5807.9 1709.91C5807.24 1710.06 5806.34 1710.29 5805.2 1710.6C5804.1 1710.89 5802.77 1711.5 5801.21 1712.44C5797.65 1714.58 5795.62 1717.02 5795.12 1719.77C5794.64 1722.49 5795.45 1725.59 5797.53 1729.06L5843.95 1806.32L5833.18 1812.79ZM5874.76 1787.81L5832.62 1717.68L5843.03 1711.42L5849.4 1722.01L5850.13 1721.57C5849.32 1717.34 5849.94 1713.13 5851.99 1708.96C5854.04 1704.78 5857.17 1701.44 5861.37 1698.91C5862.16 1698.44 5863.16 1697.86 5864.36 1697.17C5865.57 1696.49 5866.49 1696 5867.14 1695.69L5873.72 1706.65C5873.3 1706.78 5872.38 1707.14 5870.96 1707.75C5869.56 1708.3 5868.14 1709.01 5866.71 1709.87C5863.3 1711.92 5860.69 1714.46 5858.87 1717.5C5857.06 1720.49 5856.13 1723.7 5856.08 1727.13C5856.04 1730.51 5856.97 1733.79 5858.87 1736.95L5885.54 1781.33L5874.76 1787.81ZM5950.75 1744.14C5943.99 1748.2 5937.26 1750.21 5930.57 1750.17C5923.89 1750.08 5917.61 1748.14 5911.72 1744.35C5905.85 1740.5 5900.75 1734.99 5896.44 1727.8C5892.12 1720.62 5889.63 1713.5 5888.95 1706.45C5888.29 1699.35 5889.39 1692.84 5892.26 1686.93C5895.15 1680.98 5899.75 1676.09 5906.09 1672.29C5909.74 1670.1 5913.71 1668.54 5918 1667.62C5922.3 1666.69 5926.73 1666.72 5931.3 1667.71C5935.85 1668.66 5940.33 1670.85 5944.76 1674.29C5949.18 1677.72 5953.36 1682.71 5957.29 1689.25L5960.03 1693.82L5905.97 1726.3L5900.38 1716.98L5943.48 1691.09C5941.1 1687.13 5938.19 1684.07 5934.74 1681.92C5931.32 1679.75 5927.63 1678.63 5923.66 1678.57C5919.72 1678.5 5915.8 1679.63 5911.9 1681.97C5907.61 1684.55 5904.54 1687.85 5902.68 1691.86C5900.84 1695.83 5900.1 1700 5900.45 1704.39C5900.81 1708.77 5902.15 1712.9 5904.47 1716.76L5908.2 1722.97C5911.38 1728.27 5914.99 1732.21 5919.03 1734.79C5923.08 1737.33 5927.33 1738.57 5931.77 1738.51C5936.19 1738.43 5940.58 1737.07 5944.93 1734.46C5947.76 1732.76 5950.08 1730.83 5951.89 1728.66C5953.71 1726.45 5954.97 1724.04 5955.68 1721.42C5956.36 1718.77 5956.43 1715.95 5955.88 1712.97L5968.05 1709.63C5969.07 1713.82 5969.1 1718.03 5968.12 1722.27C5967.12 1726.47 5965.17 1730.46 5962.26 1734.24C5959.33 1737.98 5955.5 1741.29 5950.75 1744.14ZM6058.95 1712.93L6036.68 1675.85L6035.76 1676.4C6035.74 1678.16 6035.58 1680.45 6035.29 1683.27C6034.98 1686.07 6033.93 1689.04 6032.14 1692.19C6030.32 1695.31 6027.17 1698.22 6022.66 1700.93C6016.82 1704.44 6010.77 1706.06 6004.52 1705.8C5998.25 1705.51 5992.23 1703.41 5986.45 1699.51C5980.65 1695.58 5975.52 1689.9 5971.05 1682.47C5966.63 1675.11 5964.05 1667.95 5963.32 1661.02C5962.59 1654.08 5963.59 1647.78 5966.32 1642.12C5969.05 1636.47 5973.37 1631.86 5979.28 1628.31C5983.84 1625.57 5987.91 1624.16 5991.47 1624.09C5995.04 1623.98 5998.11 1624.46 6000.66 1625.53C6003.23 1626.56 6005.27 1627.44 6006.79 1628.19L6008.07 1627.42L6001.38 1616.28L6011.79 1610.02L6069.73 1706.45L6058.95 1712.93ZM6018.31 1690.37C6022.63 1687.77 6025.6 1684.45 6027.23 1680.41C6028.84 1676.33 6029.22 1671.82 6028.36 1666.87C6027.48 1661.89 6025.45 1656.75 6022.26 1651.45C6019.12 1646.22 6015.6 1642.09 6011.72 1639.08C6007.82 1636.04 6003.72 1634.32 5999.42 1633.92C5995.11 1633.49 5990.75 1634.59 5986.37 1637.22C5981.81 1639.97 5978.7 1643.43 5977.07 1647.6C5975.45 1651.72 5975.07 1656.24 5975.94 1661.14C5976.83 1665.99 5978.76 1670.88 5981.72 1675.81C5984.72 1680.81 5988.2 1684.88 5992.18 1688.05C5996.16 1691.16 6000.38 1693.02 6004.84 1693.61C6009.31 1694.16 6013.8 1693.08 6018.31 1690.37Z" fill="#737370"/>
<path d="M3585.29 1513.82V1732H3558.87V1541.52H3557.59L3504.32 1576.89V1550.04L3558.87 1513.82H3585.29ZM3724.74 1513.82V1732H3698.32V1541.52H3697.04L3643.78 1576.89V1550.04L3698.32 1513.82H3724.74ZM4631.24 1732V1712.82L4703.26 1633.99C4711.71 1624.76 4718.67 1616.73 4724.14 1609.91C4729.61 1603.02 4733.66 1596.56 4736.28 1590.52C4738.98 1584.41 4740.33 1578.02 4740.33 1571.35C4740.33 1563.68 4738.49 1557.04 4734.79 1551.42C4731.17 1545.81 4726.2 1541.48 4719.88 1538.43C4713.56 1535.37 4706.45 1533.85 4698.57 1533.85C4690.19 1533.85 4682.88 1535.59 4676.62 1539.07C4670.45 1542.48 4665.65 1547.27 4662.24 1553.45C4658.9 1559.63 4657.24 1566.87 4657.24 1575.18H4632.09C4632.09 1562.4 4635.04 1551.18 4640.94 1541.52C4646.83 1531.86 4654.86 1524.33 4665.01 1518.93C4675.24 1513.53 4686.71 1510.84 4699.42 1510.84C4712.21 1510.84 4723.54 1513.53 4733.41 1518.93C4743.28 1524.33 4751.02 1531.61 4756.63 1540.77C4762.24 1549.93 4765.05 1560.12 4765.05 1571.35C4765.05 1579.37 4763.59 1587.22 4760.68 1594.89C4757.84 1602.49 4752.87 1610.98 4745.77 1620.35C4738.73 1629.66 4728.97 1641.02 4716.47 1654.44L4667.46 1706.86V1708.56H4768.88V1732H4631.24Z" fill="#737370"/>
<path d="M3585.29 1876.82V2095H3558.87V1904.52H3557.59L3504.32 1939.89V1913.04L3558.87 1876.82H3585.29ZM3721.76 2097.98C3707.7 2097.98 3695.16 2095.57 3684.15 2090.74C3673.22 2085.91 3664.52 2079.2 3658.05 2070.6C3651.66 2061.94 3648.18 2051.89 3647.61 2040.45H3674.46C3675.03 2047.49 3677.44 2053.56 3681.7 2058.67C3685.96 2063.71 3691.54 2067.62 3698.43 2070.39C3705.32 2073.16 3712.95 2074.55 3721.33 2074.55C3730.71 2074.55 3739.02 2072.91 3746.26 2069.64C3753.51 2066.38 3759.19 2061.83 3763.31 2056.01C3767.43 2050.18 3769.49 2043.44 3769.49 2035.77C3769.49 2027.74 3767.5 2020.67 3763.52 2014.57C3759.54 2008.39 3753.72 2003.56 3746.05 2000.08C3738.38 1996.6 3729 1994.86 3717.92 1994.86H3700.45V1971.42H3717.92C3726.59 1971.42 3734.19 1969.86 3740.72 1966.73C3747.33 1963.61 3752.48 1959.2 3756.17 1953.52C3759.93 1947.84 3761.82 1941.16 3761.82 1933.49C3761.82 1926.11 3760.18 1919.68 3756.92 1914.21C3753.65 1908.74 3749.03 1904.48 3743.07 1901.43C3737.17 1898.37 3730.21 1896.85 3722.19 1896.85C3714.66 1896.85 3707.56 1898.23 3700.88 1901C3694.27 1903.7 3688.88 1907.64 3684.69 1912.83C3680.5 1917.94 3678.22 1924.12 3677.87 1931.36H3652.3C3652.73 1919.93 3656.17 1909.91 3662.63 1901.32C3669.1 1892.66 3677.55 1885.91 3687.99 1881.08C3698.5 1876.25 3710.04 1873.84 3722.61 1873.84C3736.11 1873.84 3747.68 1876.57 3757.34 1882.04C3767 1887.44 3774.42 1894.57 3779.61 1903.45C3784.79 1912.33 3787.38 1921.92 3787.38 1932.22C3787.38 1944.5 3784.15 1954.98 3777.69 1963.64C3771.3 1972.31 3762.6 1978.31 3751.59 1981.65V1983.35C3765.37 1985.62 3776.13 1991.48 3783.87 2000.93C3791.61 2010.31 3795.48 2021.92 3795.48 2035.77C3795.48 2047.63 3792.25 2058.28 3785.79 2067.73C3779.39 2077.1 3770.66 2084.49 3759.58 2089.89C3748.5 2095.28 3735.89 2097.98 3721.76 2097.98ZM4759.51 1876.82V2095H4733.09V1904.52H4731.81L4678.54 1939.89V1913.04L4733.09 1876.82H4759.51Z" fill="#737370"/>
<path d="M3506.4 2458L3603.99 2264.96V2263.26H3491.49V2239.82H3631.26V2264.53L3534.1 2458H3506.4ZM4760.18 2239.82V2458H4733.76V2267.52H4732.48L4679.21 2302.89V2276.04L4733.76 2239.82H4760.18Z" fill="#737370"/>
<path d="M3593.31 1019.98C3579.24 1019.98 3566.71 1017.57 3555.7 1012.74C3544.76 1007.91 3536.06 1001.2 3529.6 992.604C3523.21 983.939 3519.73 973.889 3519.16 962.455H3546.01C3546.57 969.486 3548.99 975.558 3553.25 980.672C3557.51 985.714 3563.09 989.621 3569.98 992.391C3576.87 995.161 3584.5 996.545 3592.88 996.545C3602.26 996.545 3610.57 994.912 3617.81 991.645C3625.05 988.378 3630.74 983.832 3634.86 978.009C3638.97 972.185 3641.03 965.438 3641.03 957.767C3641.03 949.741 3639.05 942.675 3635.07 936.567C3631.09 930.388 3625.27 925.558 3617.6 922.078C3609.93 918.598 3600.55 916.858 3589.47 916.858H3572V893.42H3589.47C3598.14 893.42 3605.74 891.858 3612.27 888.733C3618.88 885.608 3624.02 881.205 3627.72 875.523C3631.48 869.841 3633.36 863.165 3633.36 855.494C3633.36 848.108 3631.73 841.68 3628.46 836.212C3625.2 830.743 3620.58 826.482 3614.61 823.428C3608.72 820.374 3601.76 818.847 3593.73 818.847C3586.2 818.847 3579.1 820.232 3572.43 823.001C3565.82 825.7 3560.42 829.642 3556.23 834.827C3552.04 839.94 3549.77 846.119 3549.41 853.364H3523.85C3524.27 841.929 3527.72 831.915 3534.18 823.321C3540.64 814.656 3549.1 807.909 3559.54 803.08C3570.05 798.25 3581.59 795.835 3594.16 795.835C3607.65 795.835 3619.23 798.57 3628.89 804.038C3638.55 809.436 3645.97 816.574 3651.15 825.452C3656.34 834.33 3658.93 843.918 3658.93 854.216C3658.93 866.503 3655.7 876.979 3649.24 885.643C3642.85 894.308 3634.14 900.31 3623.14 903.648V905.352C3636.91 907.625 3647.67 913.484 3655.42 922.93C3663.16 932.305 3667.03 943.918 3667.03 957.767C3667.03 969.628 3663.8 980.281 3657.33 989.727C3650.94 999.102 3642.21 1006.49 3631.13 1011.89C3620.05 1017.28 3607.44 1019.98 3593.31 1019.98ZM4638.73 1017V997.824L4710.74 918.989C4719.19 909.756 4726.15 901.73 4731.62 894.912C4737.09 888.023 4741.14 881.56 4743.77 875.523C4746.47 869.415 4747.82 863.023 4747.82 856.347C4747.82 848.676 4745.97 842.036 4742.28 836.425C4738.65 830.814 4733.68 826.482 4727.36 823.428C4721.04 820.374 4713.94 818.847 4706.06 818.847C4697.67 818.847 4690.36 820.587 4684.11 824.067C4677.93 827.476 4673.14 832.27 4669.73 838.449C4666.39 844.628 4664.72 851.872 4664.72 860.182H4639.58C4639.58 847.398 4642.53 836.176 4648.42 826.517C4654.32 816.858 4662.34 809.33 4672.5 803.932C4682.72 798.534 4694.19 795.835 4706.91 795.835C4719.69 795.835 4731.02 798.534 4740.89 803.932C4750.76 809.33 4758.51 816.609 4764.12 825.771C4769.73 834.933 4772.53 845.125 4772.53 856.347C4772.53 864.372 4771.08 872.22 4768.16 879.891C4765.32 887.49 4760.35 895.977 4753.25 905.352C4746.22 914.656 4736.45 926.02 4723.95 939.443L4674.95 991.858V993.562H4776.37V1017H4638.73Z" fill="#737370"/>
<line x1="5280" y1="440" x2="6165" y2="440" stroke="#737370" stroke-width="10"/>
<line x1="7918" y1="440" x2="8503" y2="440" stroke="#737370" stroke-width="10"/>
<line x1="5376" y1="2349.07" x2="5376" y2="1985.93" stroke="#737370" stroke-width="10"/>
<line x1="4791" y1="2344" x2="5376" y2="2344" stroke="#737370" stroke-width="10"/>
<line x1="4801" y1="1981" x2="5386" y2="1981" stroke="#737370" stroke-width="10"/>
<line x1="5391" y1="908" x2="5391" y2="1623" stroke="#737370" stroke-width="10"/>
<line x1="4801" y1="1618" x2="5386" y2="1618" stroke="#737370" stroke-width="10"/>
<line x1="4801" y1="903" x2="5386" y2="903" stroke="#737370" stroke-width="10"/>
<line x1="6313" y1="440" x2="7732" y2="440" stroke="#737370" stroke-width="10"/>
<path d="M5726.99 445.271C5727.14 442.514 5725.03 440.157 5722.27 440.007L5677.34 437.564C5674.58 437.414 5672.22 439.528 5672.07 442.285C5671.92 445.042 5674.04 447.399 5676.79 447.549L5716.74 449.721L5714.56 489.662C5714.41 492.419 5716.53 494.776 5719.29 494.926C5722.04 495.076 5724.4 492.962 5724.55 490.205L5726.99 445.271ZM4804.34 1274.72L5725.34 448.722L5718.66 441.278L4797.66 1267.28L4804.34 1274.72Z" fill="#737370"/>
<path d="M8214.86 441.178C8215.51 438.494 8213.86 435.792 8211.18 435.141L8167.44 424.538C8164.76 423.888 8162.06 425.536 8161.41 428.219C8160.76 430.903 8162.4 433.606 8165.09 434.257L8203.96 443.681L8194.54 482.555C8193.89 485.239 8195.54 487.942 8198.22 488.592C8200.9 489.243 8203.61 487.595 8204.26 484.911L8214.86 441.178ZM5378.6 2172.27L8212.6 444.269L8207.4 435.731L5373.4 2163.73L5378.6 2172.27Z" fill="#737370"/>
<path d="M7010.76 441.532C7011.61 438.904 7010.16 436.087 7007.53 435.241L6964.7 421.451C6962.07 420.605 6959.25 422.05 6958.41 424.679C6957.56 427.307 6959 430.124 6961.63 430.97L6999.71 443.227L6987.45 481.303C6986.61 483.932 6988.05 486.749 6990.68 487.595C6993.31 488.441 6996.12 486.996 6996.97 484.367L7010.76 441.532ZM5388.28 1275.45L7008.28 444.449L7003.72 435.551L5383.72 1266.55L5388.28 1275.45Z" fill="#737370"/>
<path d="M7004.15 619.491C6997.12 619.491 6990.85 618.284 6985.35 615.869C6979.88 613.455 6975.53 610.099 6972.3 605.802C6969.1 601.469 6967.36 596.445 6967.08 590.727H6980.5C6980.79 594.243 6981.99 597.279 6984.12 599.836C6986.26 602.357 6989.04 604.31 6992.49 605.695C6995.93 607.08 6999.75 607.773 7003.94 607.773C7008.63 607.773 7012.78 606.956 7016.4 605.322C7020.03 603.689 7022.87 601.416 7024.93 598.504C7026.99 595.592 7028.02 592.219 7028.02 588.384C7028.02 584.371 7027.02 580.837 7025.03 577.783C7023.05 574.694 7020.13 572.279 7016.3 570.539C7012.46 568.799 7007.78 567.929 7002.24 567.929H6993.5V556.21H7002.24C7006.57 556.21 7010.37 555.429 7013.63 553.866C7016.94 552.304 7019.51 550.102 7021.36 547.261C7023.24 544.42 7024.18 541.082 7024.18 537.247C7024.18 533.554 7023.37 530.34 7021.73 527.606C7020.1 524.871 7017.79 522.741 7014.81 521.214C7011.86 519.687 7008.38 518.923 7004.37 518.923C7000.6 518.923 6997.05 519.616 6993.71 521.001C6990.41 522.35 6987.71 524.321 6985.62 526.913C6983.52 529.47 6982.38 532.56 6982.21 536.182H6969.42C6969.64 530.464 6971.36 525.457 6974.59 521.161C6977.82 516.828 6982.05 513.455 6987.27 511.04C6992.52 508.625 6998.29 507.418 7004.58 507.418C7011.33 507.418 7017.12 508.785 7021.94 511.519C7026.77 514.218 7030.49 517.787 7033.08 522.226C7035.67 526.665 7036.97 531.459 7036.97 536.608C7036.97 542.751 7035.35 547.989 7032.12 552.322C7028.92 556.654 7024.57 559.655 7019.07 561.324V562.176C7025.96 563.312 7031.34 566.242 7035.21 570.965C7039.08 575.653 7041.01 581.459 7041.01 588.384C7041.01 594.314 7039.4 599.641 7036.17 604.364C7032.97 609.051 7028.6 612.744 7023.06 615.443C7017.52 618.142 7011.22 619.491 7004.15 619.491ZM7078.39 603.085L7077.54 608.838C7076.94 612.886 7076.02 617.219 7074.77 621.835C7073.56 626.452 7072.3 630.802 7070.99 634.886C7069.68 638.969 7068.59 642.219 7067.74 644.634H7058.15C7058.61 642.361 7059.22 639.36 7059.96 635.631C7060.71 631.903 7061.46 627.73 7062.2 623.114C7062.98 618.533 7063.62 613.845 7064.12 609.051L7064.76 603.085H7078.39ZM7153.03 618.852C7150.41 618.852 7148.15 617.911 7146.27 616.029C7144.39 614.147 7143.45 611.892 7143.45 609.264C7143.45 606.636 7144.39 604.381 7146.27 602.499C7148.15 600.617 7150.41 599.676 7153.03 599.676C7155.66 599.676 7157.92 600.617 7159.8 602.499C7161.68 604.381 7162.62 606.636 7162.62 609.264C7162.62 611.004 7162.18 612.602 7161.29 614.058C7160.44 615.514 7159.28 616.686 7157.83 617.574C7156.41 618.426 7154.81 618.852 7153.03 618.852ZM7194.34 618.852C7191.72 618.852 7189.46 617.911 7187.58 616.029C7185.7 614.147 7184.76 611.892 7184.76 609.264C7184.76 606.636 7185.7 604.381 7187.58 602.499C7189.46 600.617 7191.72 599.676 7194.34 599.676C7196.97 599.676 7199.23 600.617 7201.11 602.499C7202.99 604.381 7203.93 606.636 7203.93 609.264C7203.93 611.004 7203.49 612.602 7202.6 614.058C7201.75 615.514 7200.59 616.686 7199.14 617.574C7197.72 618.426 7196.12 618.852 7194.34 618.852ZM7235.65 618.852C7233.02 618.852 7230.77 617.911 7228.89 616.029C7227 614.147 7226.06 611.892 7226.06 609.264C7226.06 606.636 7227 604.381 7228.89 602.499C7230.77 600.617 7233.02 599.676 7235.65 599.676C7238.28 599.676 7240.53 600.617 7242.42 602.499C7244.3 604.381 7245.24 606.636 7245.24 609.264C7245.24 611.004 7244.8 612.602 7243.91 614.058C7243.06 615.514 7241.9 616.686 7240.45 617.574C7239.03 618.426 7237.43 618.852 7235.65 618.852ZM7286.55 603.085L7285.7 608.838C7285.09 612.886 7284.17 617.219 7282.93 621.835C7281.72 626.452 7280.46 630.802 7279.14 634.886C7277.83 638.969 7276.75 642.219 7275.9 644.634H7266.31C7266.77 642.361 7267.37 639.36 7268.12 635.631C7268.86 631.903 7269.61 627.73 7270.36 623.114C7271.14 618.533 7271.78 613.845 7272.27 609.051L7272.91 603.085H7286.55ZM7390.17 508.909V618H7376.96V522.759H7376.32L7349.68 540.443V527.02L7376.96 508.909H7390.17ZM7459.89 508.909V618H7446.68V522.759H7446.04L7419.41 540.443V527.02L7446.68 508.909H7459.89Z" fill="#737370"/>
<path d="M8175.64 508.909V618H8162.43V522.759H8161.8L8135.16 540.443V527.02L8162.43 508.909H8175.64ZM8243.88 619.491C8236.85 619.491 8230.58 618.284 8225.08 615.869C8219.61 613.455 8215.26 610.099 8212.03 605.802C8208.83 601.469 8207.09 596.445 8206.81 590.727H8220.23C8220.51 594.243 8221.72 597.279 8223.85 599.836C8225.98 602.357 8228.77 604.31 8232.21 605.695C8235.66 607.08 8239.48 607.773 8243.67 607.773C8248.35 607.773 8252.51 606.956 8256.13 605.322C8259.75 603.689 8262.59 601.416 8264.65 598.504C8266.71 595.592 8267.74 592.219 8267.74 588.384C8267.74 584.371 8266.75 580.837 8264.76 577.783C8262.77 574.694 8259.86 572.279 8256.02 570.539C8252.19 568.799 8247.5 567.929 8241.96 567.929H8233.23V556.21H8241.96C8246.29 556.21 8250.09 555.429 8253.36 553.866C8256.66 552.304 8259.24 550.102 8261.09 547.261C8262.97 544.42 8263.91 541.082 8263.91 537.247C8263.91 533.554 8263.09 530.34 8261.46 527.606C8259.82 524.871 8257.52 522.741 8254.53 521.214C8251.59 519.687 8248.11 518.923 8244.09 518.923C8240.33 518.923 8236.78 519.616 8233.44 521.001C8230.14 522.35 8227.44 524.321 8225.34 526.913C8223.25 529.47 8222.11 532.56 8221.93 536.182H8209.15C8209.36 530.464 8211.09 525.457 8214.32 521.161C8217.55 516.828 8221.77 513.455 8226.99 511.04C8232.25 508.625 8238.02 507.418 8244.31 507.418C8251.05 507.418 8256.84 508.785 8261.67 511.519C8266.5 514.218 8270.21 517.787 8272.8 522.226C8275.4 526.665 8276.69 531.459 8276.69 536.608C8276.69 542.751 8275.08 547.989 8271.85 552.322C8268.65 556.654 8264.3 559.655 8258.79 561.324V562.176C8265.68 563.312 8271.06 566.242 8274.93 570.965C8278.81 575.653 8280.74 581.459 8280.74 588.384C8280.74 594.314 8279.13 599.641 8275.89 604.364C8272.7 609.051 8268.33 612.744 8262.79 615.443C8257.25 618.142 8250.95 619.491 8243.88 619.491ZM8318.12 603.085L8317.27 608.838C8316.66 612.886 8315.74 617.219 8314.5 621.835C8313.29 626.452 8312.03 630.802 8310.72 634.886C8309.4 638.969 8308.32 642.219 8307.47 644.634H8297.88C8298.34 642.361 8298.94 639.36 8299.69 635.631C8300.44 631.903 8301.18 627.73 8301.93 623.114C8302.71 618.533 8303.35 613.845 8303.85 609.051L8304.48 603.085H8318.12ZM8392.76 618.852C8390.13 618.852 8387.88 617.911 8386 616.029C8384.11 614.147 8383.17 611.892 8383.17 609.264C8383.17 606.636 8384.11 604.381 8386 602.499C8387.88 600.617 8390.13 599.676 8392.76 599.676C8395.39 599.676 8397.64 600.617 8399.53 602.499C8401.41 604.381 8402.35 606.636 8402.35 609.264C8402.35 611.004 8401.91 612.602 8401.02 614.058C8400.17 615.514 8399.01 616.686 8397.56 617.574C8396.13 618.426 8394.54 618.852 8392.76 618.852ZM8434.07 618.852C8431.44 618.852 8429.19 617.911 8427.31 616.029C8425.42 614.147 8424.48 611.892 8424.48 609.264C8424.48 606.636 8425.42 604.381 8427.31 602.499C8429.19 600.617 8431.44 599.676 8434.07 599.676C8436.7 599.676 8438.95 600.617 8440.83 602.499C8442.72 604.381 8443.66 606.636 8443.66 609.264C8443.66 611.004 8443.21 612.602 8442.33 614.058C8441.47 615.514 8440.32 616.686 8438.86 617.574C8437.44 618.426 8435.85 618.852 8434.07 618.852ZM8475.38 618.852C8472.75 618.852 8470.5 617.911 8468.61 616.029C8466.73 614.147 8465.79 611.892 8465.79 609.264C8465.79 606.636 8466.73 604.381 8468.61 602.499C8470.5 600.617 8472.75 599.676 8475.38 599.676C8478.01 599.676 8480.26 600.617 8482.14 602.499C8484.03 604.381 8484.97 606.636 8484.97 609.264C8484.97 611.004 8484.52 612.602 8483.63 614.058C8482.78 615.514 8481.63 616.686 8480.17 617.574C8478.75 618.426 8477.15 618.852 8475.38 618.852ZM8526.28 603.085L8525.42 608.838C8524.82 612.886 8523.9 617.219 8522.65 621.835C8521.45 626.452 8520.19 630.802 8518.87 634.886C8517.56 638.969 8516.47 642.219 8515.62 644.634H8506.03C8506.5 642.361 8507.1 639.36 8507.84 635.631C8508.59 631.903 8509.34 627.73 8510.08 623.114C8510.86 618.533 8511.5 613.845 8512 609.051L8512.64 603.085H8526.28ZM8594.95 618L8643.74 521.48V520.628H8587.49V508.909H8657.38V521.267L8608.8 618H8594.95Z" fill="#737370"/>
<path d="M5515.35 1059.86L5506.74 1067.83C5505.25 1066.48 5503.48 1065.32 5501.44 1064.37C5499.42 1063.37 5497.1 1062.88 5494.48 1062.9C5491.86 1062.92 5488.92 1063.76 5485.66 1065.42C5481.2 1067.69 5478 1070.62 5476.08 1074.19C5474.17 1077.71 5474.01 1081.04 5475.6 1084.17C5477.02 1086.96 5479.16 1088.64 5482 1089.22C5484.85 1089.8 5488.7 1089.54 5493.55 1088.42L5505.73 1085.56C5513.05 1083.82 5519.14 1083.77 5524 1085.4C5528.84 1087 5532.56 1090.35 5535.15 1095.44C5537.28 1099.62 5537.98 1103.96 5537.25 1108.48C5536.55 1112.98 5534.55 1117.27 5531.25 1121.34C5527.95 1125.42 5523.46 1128.9 5517.8 1131.78C5510.36 1135.57 5503.39 1137.09 5496.87 1136.35C5490.35 1135.6 5484.86 1132.46 5480.41 1126.92L5489.68 1118.85C5492.7 1122.25 5496.11 1124.22 5499.93 1124.75C5503.77 1125.26 5507.99 1124.35 5512.58 1122.01C5517.8 1119.35 5521.38 1116.13 5523.32 1112.35C5525.28 1108.52 5525.46 1105.04 5523.86 1101.91C5522.57 1099.38 5520.6 1097.71 5517.96 1096.91C5515.3 1096.07 5511.92 1096.16 5507.82 1097.17L5494.21 1100.52C5486.73 1102.34 5480.58 1102.38 5475.75 1100.66C5470.94 1098.88 5467.26 1095.48 5464.69 1090.45C5462.6 1086.34 5461.9 1082.11 5462.6 1077.77C5463.33 1073.41 5465.24 1069.31 5468.34 1065.46C5471.47 1061.59 5475.6 1058.35 5480.72 1055.74C5487.94 1052.06 5494.41 1050.76 5500.13 1051.83C5505.89 1052.88 5510.96 1055.56 5515.35 1059.86ZM5584.68 1097.94C5580.07 1100.3 5575.43 1101.56 5570.78 1101.74C5566.11 1101.89 5561.82 1100.86 5557.91 1098.67C5553.99 1096.44 5550.82 1092.96 5548.4 1088.21C5546.27 1084.03 5545.37 1080.23 5545.69 1076.8C5546 1073.33 5547.15 1070.16 5549.15 1067.27C5551.14 1064.38 5553.62 1061.72 5556.57 1059.3C5559.53 1056.83 5562.6 1054.51 5565.76 1052.35C5569.9 1049.52 5573.27 1047.26 5575.88 1045.58C5578.5 1043.84 5580.26 1042.29 5581.15 1040.91C5582.08 1039.52 5582.09 1037.93 5581.17 1036.13L5580.97 1035.75C5578.59 1031.06 5575.45 1028.08 5571.57 1026.79C5567.71 1025.48 5563.21 1026.14 5558.05 1028.77C5552.7 1031.5 5549.11 1034.8 5547.26 1038.69C5545.42 1042.58 5544.56 1046.17 5544.68 1049.46L5532.11 1051.08C5531.75 1045.68 5532.53 1040.94 5534.43 1036.86C5536.35 1032.73 5538.95 1029.22 5542.21 1026.32C5545.49 1023.37 5548.97 1020.96 5552.64 1019.09C5554.98 1017.9 5557.82 1016.82 5561.14 1015.84C5564.49 1014.81 5568.02 1014.43 5571.74 1014.69C5575.49 1014.93 5579.19 1016.29 5582.84 1018.77C5586.5 1021.25 5589.8 1025.39 5592.75 1031.18L5617.23 1079.21L5606.03 1084.92L5601 1075.04L5600.43 1075.33C5600.47 1077.3 5600.07 1079.64 5599.22 1082.35C5598.36 1085.05 5596.79 1087.79 5594.49 1090.55C5592.19 1093.32 5588.92 1095.78 5584.68 1097.94ZM5581.27 1087.01C5585.7 1084.75 5588.99 1081.98 5591.14 1078.69C5593.32 1075.39 5594.49 1071.96 5594.63 1068.42C5594.81 1064.86 5594.13 1061.56 5592.58 1058.53L5587.36 1048.28C5587.17 1049.09 5586.39 1050.14 5585.02 1051.44C5583.67 1052.69 5582.03 1054.02 5580.12 1055.43C5578.23 1056.79 5576.36 1058.1 5574.53 1059.35C5572.71 1060.56 5571.24 1061.55 5570.12 1062.32C5567.4 1064.18 5565 1066.18 5562.9 1068.33C5560.82 1070.43 5559.43 1072.71 5558.74 1075.17C5558.06 1077.59 5558.44 1080.23 5559.89 1083.07C5561.87 1086.97 5564.81 1089.17 5568.71 1089.7C5572.62 1090.18 5576.81 1089.28 5581.27 1087.01ZM5637.67 1068.79L5600.53 995.891L5611.35 990.377L5617.15 1001.77L5618.1 1001.28C5617.64 996.619 5618.55 992.348 5620.84 988.471C5623.11 984.563 5626.62 981.4 5631.37 978.981C5636.18 976.531 5640.74 975.583 5645.04 976.138C5649.37 976.645 5653.42 978.385 5657.21 981.358L5657.97 980.971C5657.92 976.255 5659.19 971.838 5661.8 967.72C5664.39 963.572 5668.29 960.167 5673.51 957.507C5680.03 954.186 5686.4 953.51 5692.63 955.48C5698.84 957.418 5704.12 962.674 5708.49 971.249L5733.35 1020.04L5722.15 1025.75L5697.29 976.956C5694.55 971.577 5691.12 968.482 5687 967.672C5682.88 966.862 5678.83 967.472 5674.84 969.503C5669.72 972.115 5666.54 975.689 5665.3 980.224C5664.05 984.728 5664.62 989.338 5667.02 994.052L5691.21 1041.51L5679.82 1047.32L5654.38 997.388C5652.26 993.243 5649.22 990.59 5645.24 989.429C5641.24 988.237 5637.13 988.721 5632.89 990.881C5629.98 992.364 5627.65 994.526 5625.91 997.366C5624.2 1000.19 5623.27 1003.37 5623.12 1006.92C5622.99 1010.41 5623.83 1013.95 5625.66 1017.52L5648.87 1063.08L5637.67 1068.79ZM5785.17 995.549C5778.15 999.128 5771.3 1000.67 5764.62 1000.16C5757.97 999.607 5751.83 997.232 5746.23 993.034C5740.64 988.788 5735.94 982.932 5732.13 975.465C5728.33 967.998 5726.34 960.723 5726.15 953.641C5725.99 946.512 5727.54 940.099 5730.82 934.405C5734.11 928.662 5739.05 924.115 5745.63 920.761C5749.43 918.827 5753.5 917.549 5757.85 916.928C5762.19 916.308 5766.61 916.648 5771.1 917.947C5775.57 919.216 5779.89 921.716 5784.07 925.448C5788.24 929.181 5792.06 934.448 5795.53 941.251L5797.95 945.997L5741.75 974.629L5736.82 964.947L5781.62 942.119C5779.53 938.006 5776.83 934.754 5773.54 932.365C5770.28 929.96 5766.68 928.59 5762.72 928.255C5758.79 927.903 5754.81 928.76 5750.76 930.823C5746.3 933.096 5743 936.171 5740.87 940.046C5738.75 943.874 5737.72 947.987 5737.77 952.386C5737.82 956.785 5738.87 960.993 5740.92 965.012L5744.2 971.466C5747.01 976.972 5750.34 981.155 5754.19 984.016C5758.05 986.83 5762.2 988.363 5766.63 988.615C5771.05 988.835 5775.52 987.793 5780.04 985.488C5782.99 983.988 5785.44 982.223 5787.39 980.191C5789.36 978.111 5790.79 975.79 5791.67 973.226C5792.54 970.631 5792.81 967.826 5792.47 964.811L5804.83 962.335C5805.57 966.585 5805.3 970.788 5804.03 974.943C5802.74 979.066 5800.51 982.91 5797.35 986.476C5794.17 990.01 5790.11 993.034 5785.17 995.549ZM5864.53 861.375L5869.37 870.867L5830.07 890.89L5825.23 881.398L5864.53 861.375ZM5874.15 948.301L5831.88 865.339C5829.75 861.162 5828.95 857.182 5829.5 853.398C5830.04 849.614 5831.52 846.228 5833.95 843.24C5836.37 840.251 5839.32 837.871 5842.8 836.097C5845.55 834.695 5847.91 833.771 5849.88 833.328C5851.85 832.884 5853.35 832.634 5854.4 832.579L5856.11 843.905C5855.44 844.006 5854.53 844.171 5853.37 844.402C5852.24 844.617 5850.88 845.136 5849.26 845.958C5845.56 847.845 5843.36 850.14 5842.67 852.845C5842 855.534 5842.59 858.682 5844.43 862.29L5885.35 942.594L5874.15 948.301ZM5917.37 926.277L5880.23 853.376L5891.05 847.863L5896.66 858.874L5897.42 858.487C5896.91 854.202 5897.82 850.05 5900.16 846.03C5902.49 842.011 5905.85 838.888 5910.21 836.663C5911.03 836.244 5912.07 835.736 5913.32 835.139C5914.57 834.542 5915.53 834.114 5916.19 833.855L5922 845.245C5921.57 845.344 5920.63 845.645 5919.17 846.148C5917.73 846.604 5916.26 847.211 5914.78 847.968C5911.23 849.774 5908.45 852.13 5906.42 855.035C5904.41 857.894 5903.26 861.031 5902.97 864.448C5902.69 867.817 5903.39 871.147 5905.07 874.437L5928.57 920.57L5917.37 926.277ZM5996.22 888.015C5989.2 891.594 5982.35 893.131 5975.67 892.626C5969.01 892.073 5962.88 889.697 5957.27 885.499C5951.68 881.254 5946.99 875.397 5943.18 867.93C5939.38 860.463 5937.38 853.188 5937.2 846.107C5937.04 838.977 5938.59 832.565 5941.87 826.87C5945.16 821.128 5950.1 816.58 5956.68 813.227C5960.48 811.292 5964.55 810.015 5968.89 809.394C5973.24 808.773 5977.66 809.113 5982.15 810.413C5986.62 811.681 5990.94 814.182 5995.12 817.914C5999.29 821.646 6003.11 826.914 6006.58 833.716L6008.99 838.463L5952.8 867.095L5947.87 857.413L5992.67 834.584C5990.57 830.471 5987.88 827.22 5984.59 824.831C5981.33 822.426 5977.73 821.055 5973.77 820.72C5969.84 820.369 5965.86 821.225 5961.81 823.289C5957.34 825.562 5954.05 828.636 5951.92 832.511C5949.8 836.339 5948.77 840.452 5948.82 844.851C5948.87 849.25 5949.92 853.459 5951.96 857.477L5955.25 863.932C5958.06 869.437 5961.39 873.621 5965.23 876.482C5969.1 879.295 5973.25 880.828 5977.68 881.08C5982.1 881.301 5986.57 880.259 5991.09 877.953C5994.04 876.454 5996.48 874.688 5998.44 872.656C6000.41 870.577 6001.83 868.255 6002.72 865.692C6003.59 863.096 6003.85 860.291 6003.51 857.276L6015.88 854.8C6016.61 859.051 6016.34 863.254 6015.07 867.408C6013.79 871.531 6011.56 875.376 6008.4 878.941C6005.21 882.475 6001.16 885.5 5996.22 888.015ZM6106.34 864.428L6086.7 825.89L6085.75 826.374C6085.61 828.122 6085.29 830.395 6084.8 833.194C6084.3 835.961 6083.04 838.853 6081.03 841.87C6079.01 844.855 6075.65 847.541 6070.97 849.927C6064.9 853.022 6058.75 854.221 6052.54 853.521C6046.31 852.79 6040.44 850.278 6034.95 845.984C6029.43 841.658 6024.71 835.635 6020.78 827.915C6016.88 820.258 6014.8 812.944 6014.56 805.974C6014.32 799.004 6015.75 792.791 6018.87 787.336C6021.99 781.881 6026.62 777.589 6032.76 774.462C6037.51 772.044 6041.66 770.924 6045.22 771.104C6048.79 771.235 6051.81 771.927 6054.28 773.179C6056.77 774.383 6058.75 775.408 6060.22 776.254L6061.54 775.577L6055.64 763.997L6066.47 758.483L6117.54 858.721L6106.34 864.428ZM6067.36 839.091C6071.86 836.802 6075.06 833.697 6076.96 829.775C6078.86 825.822 6079.54 821.347 6079.03 816.348C6078.5 811.317 6076.83 806.049 6074.03 800.544C6071.25 795.102 6068.04 790.743 6064.37 787.467C6060.7 784.16 6056.73 782.157 6052.47 781.459C6048.19 780.729 6043.77 781.525 6039.21 783.846C6034.47 786.265 6031.13 789.498 6029.21 793.547C6027.3 797.547 6026.62 802.023 6027.15 806.974C6027.69 811.878 6029.27 816.892 6031.88 822.018C6034.53 827.207 6037.72 831.519 6041.46 834.952C6045.22 838.338 6049.3 840.483 6053.71 841.387C6058.13 842.243 6062.68 841.477 6067.36 839.091Z" fill="#737370"/>
</svg>
